<svg width="32" height="32" viewBox="0 0 32 32" fill="none" xmlns="http://www.w3.org/2000/svg">
<g clip-path="url(#clip0_284_154)">
<path d="M22.5714 14.8571H17.1428V9.42854C17.1428 9.27139 17.0143 9.14282 16.8571 9.14282H15.1428C14.9857 9.14282 14.8571 9.27139 14.8571 9.42854V14.8571H9.42854C9.27139 14.8571 9.14282 14.9857 9.14282 15.1428V16.8571C9.14282 17.0143 9.27139 17.1428 9.42854 17.1428H14.8571V22.5714C14.8571 22.7285 14.9857 22.8571 15.1428 22.8571H16.8571C17.0143 22.8571 17.1428 22.7285 17.1428 22.5714V17.1428H22.5714C22.7285 17.1428 22.8571 17.0143 22.8571 16.8571V15.1428C22.8571 14.9857 22.7285 14.8571 22.5714 14.8571Z" fill="#023047"/>
<path d="M16 0C7.16429 0 0 7.16429 0 16C0 24.8357 7.16429 32 16 32C24.8357 32 32 24.8357 32 16C32 7.16429 24.8357 0 16 0ZM16 29.2857C8.66429 29.2857 2.71429 23.3357 2.71429 16C2.71429 8.66429 8.66429 2.71429 16 2.71429C23.3357 2.71429 29.2857 8.66429 29.2857 16C29.2857 23.3357 23.3357 29.2857 16 29.2857Z" fill="#023047"/>
</g>
<defs>
<clipPath id="clip0_284_154">
<rect width="32" height="32" fill="white"/>
</clipPath>
</defs>
</svg>
