<svg width="32" height="32" viewBox="0 0 32 32" fill="none" xmlns="http://www.w3.org/2000/svg">
<g clip-path="url(#clip0_283_172)">
<path d="M30.7428 20.0607L28.4036 18.0607C28.5143 17.3821 28.5714 16.6893 28.5714 15.9964C28.5714 15.3036 28.5143 14.6107 28.4036 13.9321L30.7428 11.9321C30.9193 11.7811 31.0456 11.5799 31.1049 11.3553C31.1642 11.1308 31.1538 10.8935 31.075 10.675L31.0428 10.5821C30.3988 8.78222 29.4345 7.11368 28.1964 5.65713L28.1321 5.58213C27.9819 5.40553 27.7818 5.27858 27.558 5.21801C27.3342 5.15745 27.0973 5.1661 26.8786 5.24284L23.975 6.27499C22.9036 5.39641 21.7071 4.70356 20.4143 4.21784L19.8536 1.18213C19.8113 0.953708 19.7004 0.743566 19.5359 0.579621C19.3713 0.415676 19.1607 0.305689 18.9321 0.264272L18.8357 0.246415C16.975 -0.0892997 15.0178 -0.0892997 13.1571 0.246415L13.0607 0.264272C12.8321 0.305689 12.6215 0.415676 12.457 0.579621C12.2924 0.743566 12.1816 0.953708 12.1393 1.18213L11.575 4.23213C10.2924 4.71794 9.09808 5.41043 8.03927 6.28213L5.11427 5.24284C4.89558 5.16549 4.65852 5.15652 4.43461 5.21713C4.2107 5.27773 4.01052 5.40504 3.8607 5.58213L3.79641 5.65713C2.55979 7.11472 1.59561 8.78298 0.949983 10.5821L0.91784 10.675C0.757126 11.1214 0.889269 11.6214 1.24998 11.9321L3.61784 13.9536C3.50713 14.625 3.45355 15.3107 3.45355 15.9928C3.45355 16.6786 3.50713 17.3643 3.61784 18.0321L1.24998 20.0536C1.07354 20.2046 0.947256 20.4058 0.887926 20.6304C0.828595 20.8549 0.839029 21.0922 0.91784 21.3107L0.949983 21.4036C1.59641 23.2036 2.55355 24.8643 3.79641 26.3286L3.8607 26.4036C4.01089 26.5802 4.21107 26.7071 4.43485 26.7677C4.65863 26.8282 4.89551 26.8196 5.11427 26.7428L8.03927 25.7036C9.10355 26.5786 10.2928 27.2714 11.575 27.7536L12.1393 30.8036C12.1816 31.032 12.2924 31.2421 12.457 31.4061C12.6215 31.57 12.8321 31.68 13.0607 31.7214L13.1571 31.7393C15.0349 32.0768 16.9579 32.0768 18.8357 31.7393L18.9321 31.7214C19.1607 31.68 19.3713 31.57 19.5359 31.4061C19.7004 31.2421 19.8113 31.032 19.8536 30.8036L20.4143 27.7678C21.7066 27.2834 22.9098 26.5883 23.975 25.7107L26.8786 26.7428C27.0972 26.8202 27.3343 26.8292 27.5582 26.7686C27.7821 26.708 27.9823 26.5807 28.1321 26.4036L28.1964 26.3286C29.4393 24.8607 30.3964 23.2036 31.0428 21.4036L31.075 21.3107C31.2357 20.8714 31.1036 20.3714 30.7428 20.0607ZM25.8678 14.3536C25.9571 14.8928 26.0036 15.4464 26.0036 16C26.0036 16.5536 25.9571 17.1071 25.8678 17.6464L25.6321 19.0786L28.3 21.3607C27.8955 22.2924 27.385 23.1745 26.7786 23.9893L23.4643 22.8143L22.3428 23.7357C21.4893 24.4357 20.5393 24.9857 19.5107 25.3714L18.15 25.8821L17.5107 29.3464C16.502 29.4607 15.4837 29.4607 14.475 29.3464L13.8357 25.875L12.4857 25.3571C11.4678 24.9714 10.5214 24.4214 9.67498 23.725L8.55356 22.8L5.21784 23.9857C4.6107 23.1678 4.10355 22.2857 3.69641 21.3571L6.39284 19.0536L6.1607 17.625C6.07498 17.0928 6.02855 16.5428 6.02855 16C6.02855 15.4536 6.07141 14.9071 6.1607 14.375L6.39284 12.9464L3.69641 10.6428C4.09998 9.7107 4.6107 8.83213 5.21784 8.01427L8.55356 9.19999L9.67498 8.27499C10.5214 7.57856 11.4678 7.02856 12.4857 6.64284L13.8393 6.13213L14.4786 2.6607C15.4821 2.54641 16.5071 2.54641 17.5143 2.6607L18.1536 6.12499L19.5143 6.6357C20.5393 7.02141 21.4928 7.57141 22.3464 8.27141L23.4678 9.19284L26.7821 8.01784C27.3893 8.8357 27.8964 9.71784 28.3036 10.6464L25.6357 12.9286L25.8678 14.3536ZM16 9.35713C12.5286 9.35713 9.71427 12.1714 9.71427 15.6428C9.71427 19.1143 12.5286 21.9286 16 21.9286C19.4714 21.9286 22.2857 19.1143 22.2857 15.6428C22.2857 12.1714 19.4714 9.35713 16 9.35713ZM18.8286 18.4714C18.4576 18.8435 18.0167 19.1385 17.5312 19.3396C17.0458 19.5406 16.5254 19.6437 16 19.6428C14.9321 19.6428 13.9286 19.225 13.1714 18.4714C12.7994 18.1004 12.5043 17.6595 12.3033 17.1741C12.1022 16.6887 11.9992 16.1683 12 15.6428C12 14.575 12.4178 13.5714 13.1714 12.8143C13.9286 12.0571 14.9321 11.6428 16 11.6428C17.0678 11.6428 18.0714 12.0571 18.8286 12.8143C19.2006 13.1853 19.4956 13.6262 19.6967 14.1116C19.8977 14.597 20.0008 15.1174 20 15.6428C20 16.7107 19.5821 17.7143 18.8286 18.4714Z" fill="#023047"/>
</g>
<defs>
<clipPath id="clip0_283_172">
<rect width="32" height="32" fill="white"/>
</clipPath>
</defs>
</svg>
