<svg width="32" height="32" viewBox="0 0 32 32" fill="none" xmlns="http://www.w3.org/2000/svg">
<g clip-path="url(#clip0_284_159)">
<path d="M28.5714 16.2143H15.7857V3.42861C15.7857 3.27147 15.6571 3.1429 15.5 3.1429H14.5714C12.6953 3.13982 10.8371 3.50774 9.10379 4.22547C7.37044 4.94321 5.79611 5.9966 4.47138 7.32504C3.16677 8.62562 2.12727 10.1673 1.41067 11.8643C0.664971 13.6245 0.282326 15.517 0.285666 17.4286C0.282594 19.3047 0.650509 21.1628 1.36824 22.8962C2.08598 24.6296 3.13937 26.2039 4.46781 27.5286C5.77852 28.8393 7.3071 29.8715 9.0071 30.5893C10.7672 31.335 12.6598 31.7177 14.5714 31.7143C16.4475 31.7174 18.3056 31.3495 20.039 30.6317C21.7723 29.914 23.3467 28.8606 24.6714 27.5322C25.9821 26.2215 27.0142 24.6929 27.7321 22.9929C28.4778 21.2328 28.8604 19.3402 28.8571 17.4286V16.5C28.8571 16.3429 28.7285 16.2143 28.5714 16.2143ZM22.9178 25.85C21.8119 26.9473 20.5004 27.8156 19.0583 28.4052C17.6163 28.9947 16.0721 29.294 14.5142 29.2858C11.3678 29.2715 8.41067 28.0393 6.18567 25.8143C3.94638 23.575 2.71424 20.5965 2.71424 17.4286C2.71424 14.2608 3.94638 11.2822 6.18567 9.0429C8.13567 7.0929 10.6464 5.90361 13.3571 5.63218V18.6429H26.3678C26.0928 21.3679 24.8928 23.8929 22.9178 25.85ZM31.7142 14.2286L31.6214 13.2215C31.3178 9.93218 29.8571 6.82861 27.5071 4.48575C25.1555 2.1386 22.0582 0.685986 18.75 0.37861L17.7392 0.285753C17.5714 0.271467 17.4285 0.400038 17.4285 0.567896V14.2858C17.4285 14.4429 17.5571 14.5715 17.7142 14.5715L31.4285 14.5358C31.5964 14.5358 31.7285 14.3929 31.7142 14.2286ZM19.85 12.15V2.98575C22.0997 3.45664 24.1643 4.57081 25.7928 6.1929C27.425 7.82147 28.5428 9.8929 29.0071 12.125L19.85 12.15Z" fill="#023047"/>
</g>
<defs>
<clipPath id="clip0_284_159">
<rect width="32" height="32" fill="white"/>
</clipPath>
</defs>
</svg>
