<svg width="35" height="35" viewBox="0 0 35 35" fill="none" xmlns="http://www.w3.org/2000/svg">
<path d="M17 1C8.16429 1 1 8.16429 1 17C1 25.8357 8.16429 33 17 33C25.8357 33 33 25.8357 33 17C33 8.16429 25.8357 1 17 1ZM17 30.2857C9.66429 30.2857 3.71429 24.3357 3.71429 17C3.71429 9.66429 9.66429 3.71429 17 3.71429C24.3357 3.71429 30.2857 9.66429 30.2857 17C30.2857 24.3357 24.3357 30.2857 17 30.2857Z" fill="#023047"/>
<g clip-path="url(#clip0_209_53)">
<path d="M1.75891 17.2085L9.30305 13.8696L10.361 16.2601L2.8169 19.599L1.75891 17.2085ZM20.0151 9.12864L27.8858 5.64518L28.9438 8.03567L21.0731 11.5191L20.0151 9.12864ZM11.3932 12.9446L17.9249 10.0537L18.9829 12.4442L12.4512 15.335L11.3932 12.9446ZM15.0962 21.3113L21.6279 18.4204L22.6859 20.8109L16.1542 23.7017L15.0962 21.3113ZM23.7181 17.4953L31.5888 14.0119L32.6468 16.4024L24.776 19.8858L23.7181 17.4953ZM5.46188 25.5753L13.006 22.2363L14.064 24.6268L6.51988 27.9657L5.46188 25.5753ZM12.4512 15.335L8.26882 5.88515L6.17866 6.81022L17.1884 31.6862L19.2786 30.7612L15.0962 21.3113L12.4512 15.335ZM20.0151 9.12864L16.8907 2.06924L14.8005 2.99431L25.8103 27.8703L27.9004 26.9452L21.0731 11.5191L20.0151 9.12864Z" fill="#023047"/>
</g>
<defs>
<clipPath id="clip0_209_53">
<rect width="32" height="32" fill="white" transform="translate(2.52002) rotate(4.51687)"/>
</clipPath>
</defs>
</svg>
