<svg width="399" height="322" viewBox="0 0 399 322" fill="none" xmlns="http://www.w3.org/2000/svg">
<path d="M156.974 111.344C163.89 111.356 210.638 153.121 211.046 157.066C211.455 161.011 159.209 204.033 154.179 204.024C149.148 204.015 101.04 162.572 100.105 158.302C99.1719 154.032 150.058 111.332 156.974 111.344Z" fill="black"/>
<path d="M157.972 109.586L155.515 109.582L152.875 204.608L155.332 204.613L157.972 109.586Z" fill="white"/>
<path d="M211.672 158.094L211.79 156.039L98.0745 157.498L97.9565 159.553L211.672 158.094Z" fill="white"/>
<path d="M165.629 131.304C165.637 131.011 167.114 128.374 167.114 128.374C167.114 128.374 164.409 129.845 163.522 131.301C162.76 132.553 162.723 134.819 162.723 134.819C162.723 134.819 162.236 137.184 162.617 138.632C162.906 139.728 163.384 140.259 163.947 141.274C164.665 142.565 164.901 143.395 165.964 144.504C166.866 145.445 168.715 146.562 168.715 146.562C168.715 146.562 170.437 148.17 171.809 148.914C173.289 149.717 174.294 149.935 175.98 150.388C177.837 150.888 178.906 151.299 180.869 151.277C182.699 151.256 183.8 151.082 185.457 150.405C186.872 149.827 187.656 149.368 188.673 148.358C189.669 147.368 190.174 146.683 190.509 145.428C190.933 143.84 190.763 142.765 189.921 141.321C189.288 140.235 188.738 139.629 187.529 138.97C186.233 138.263 185.255 138.114 183.693 138.083C182.296 138.056 181.438 138.155 180.166 138.664C178.841 139.194 178.701 140.346 177.302 140.712C176.249 140.986 175.573 140.85 174.494 140.706C172.382 140.425 171.268 139.78 169.637 138.644C167.927 137.454 167.351 136.472 166.233 134.825C165.114 133.179 165.621 131.598 165.629 131.304Z" fill="white"/>
<path d="M146.412 183.301C146.422 183.594 145.107 186.288 145.107 186.288C145.107 186.288 147.722 184.705 148.518 183.215C149.203 181.933 149.102 179.671 149.102 179.671C149.102 179.671 149.444 177.29 148.975 175.863C148.62 174.781 148.109 174.272 147.483 173.283C146.687 172.026 146.4 171.207 145.269 170.147C144.311 169.247 142.393 168.211 142.393 168.211C142.393 168.211 140.573 166.68 139.156 165.997C137.627 165.259 136.609 165.085 134.896 164.705C133.009 164.285 131.915 163.921 129.954 164.027C128.126 164.125 127.035 164.346 125.42 165.092C124.04 165.73 123.284 166.221 122.33 167.272C121.395 168.302 120.932 169.006 120.674 170.273C120.346 171.875 120.582 172.941 121.513 174.346C122.212 175.401 122.799 175.983 124.048 176.588C125.387 177.238 126.374 177.346 127.937 177.31C129.336 177.277 130.187 177.142 131.428 176.58C132.72 175.995 132.79 174.838 134.166 174.415C135.203 174.096 135.886 174.202 136.974 174.3C139.102 174.491 140.255 175.086 141.956 176.15C143.738 177.264 144.374 178.219 145.592 179.814C146.812 181.409 146.402 183.008 146.412 183.301Z" fill="white"/>
<path d="M123.06 148.555C122.711 148.532 119.707 147.155 119.707 147.155C119.707 147.155 121.198 149.491 122.851 150.309C124.272 151.014 126.972 151.172 126.972 151.172C126.972 151.172 129.748 151.708 131.513 151.472C132.851 151.293 133.532 150.923 134.798 150.51C136.409 149.984 137.423 149.834 138.85 149.01C140.062 148.311 141.576 146.832 141.576 146.832C141.576 146.832 143.665 145.487 144.686 144.386C145.789 143.197 146.147 142.372 146.853 140.993C147.63 139.474 148.226 138.606 148.391 136.969C148.545 135.444 148.445 134.516 147.799 133.099C147.246 131.887 146.775 131.209 145.668 130.306C144.583 129.42 143.815 128.962 142.35 128.613C140.496 128.171 139.195 128.252 137.389 128.874C136.032 129.341 135.254 129.766 134.349 130.736C133.379 131.776 133.105 132.583 132.916 133.883C132.747 135.045 132.782 135.765 133.264 136.853C133.768 137.986 135.131 138.168 135.43 139.353C135.655 140.246 135.427 140.801 135.15 141.693C134.607 143.436 133.729 144.328 132.214 145.624C130.626 146.982 129.398 147.407 127.322 148.248C125.248 149.088 123.41 148.578 123.06 148.555Z" fill="white"/>
<path d="M187.915 164.274C188.266 164.282 191.353 165.528 191.353 165.528C191.353 165.528 189.72 163.261 188.018 162.515C186.555 161.873 183.845 161.831 183.845 161.831C183.845 161.831 181.036 161.414 179.286 161.725C177.96 161.961 177.303 162.358 176.061 162.825C174.482 163.418 173.477 163.611 172.101 164.494C170.934 165.243 169.509 166.783 169.509 166.783C169.509 166.783 167.503 168.214 166.55 169.356C165.52 170.59 165.213 171.427 164.591 172.834C163.907 174.383 163.365 175.274 163.3 176.914C163.239 178.442 163.396 179.363 164.129 180.75C164.756 181.935 165.268 182.592 166.43 183.445C167.568 184.282 168.364 184.707 169.851 184.992C171.731 185.354 173.027 185.217 174.794 184.52C176.123 183.997 176.874 183.539 177.72 182.533C178.626 181.453 178.851 180.636 178.96 179.332C179.057 178.166 178.979 177.448 178.43 176.384C177.857 175.275 176.483 175.152 176.112 173.982C175.832 173.101 176.026 172.537 176.249 171.636C176.684 169.874 177.508 168.946 178.943 167.589C180.447 166.167 181.65 165.69 183.673 164.763C185.696 163.836 187.565 164.266 187.915 164.274Z" fill="white"/>
<path d="M63.6406 119.024C65.4603 119.332 67.9484 120.253 71.1051 121.787C74.2639 123.244 77.4163 124.93 80.5624 126.845C83.8022 128.684 86.6304 130.522 89.0473 132.36C91.4668 134.121 92.8941 135.384 93.3301 136.149C93.6742 136.913 93.7723 138.326 93.623 140.388C93.4748 142.45 93.1304 144.97 92.5908 147.948C92.053 150.85 91.3699 154.057 90.5411 157.568C89.7124 161.081 88.7909 164.631 87.7772 168.219C86.7653 171.731 85.6644 175.166 84.474 178.524C83.3776 181.807 82.2456 184.707 81.079 187.226C80.5883 188.447 79.5452 189.782 77.9508 191.23C76.3567 192.679 74.4889 194.127 72.3461 195.574C70.2055 196.945 67.9296 198.239 65.5192 199.457C63.2006 200.675 60.9782 201.702 58.8524 202.539C56.8185 203.375 54.9743 203.945 53.3199 204.247C51.7578 204.55 50.7093 204.472 50.1731 204.012C49.6374 203.553 49.0836 202.101 48.5122 199.656C48.0335 197.134 47.5718 194.002 47.1272 190.258C46.6853 186.439 46.3004 182.198 45.9728 177.538C45.6474 172.802 45.3693 167.99 45.1399 163.101C44.9101 158.212 44.7225 153.438 44.578 148.778C44.5265 144.043 44.5074 139.803 44.5199 136.061C44.6258 132.242 44.8054 129.072 45.0581 126.552C45.3133 123.955 45.6764 122.391 46.1482 121.857C46.5246 121.475 47.4491 121.095 48.9223 120.716C50.4868 120.337 52.1874 119.996 54.0241 119.694C55.9521 119.392 57.8319 119.166 59.6644 119.017C61.4968 118.867 62.8223 118.869 63.6406 119.024ZM62.4137 133.572C61.763 133.953 61.2732 135.136 60.9438 137.122C60.6166 139.031 60.3234 141.36 60.0643 144.109C59.8987 146.782 59.7732 149.646 59.6887 152.701C59.6037 155.756 59.4803 158.544 59.319 161.064C58.9536 167.632 58.7181 172.826 58.6121 176.645C58.5993 180.388 58.6125 183.214 58.6508 185.123C58.7822 186.957 58.9785 188.141 59.2375 188.676C59.4994 189.135 59.8583 189.364 60.3153 189.365C60.681 189.366 61.2816 189.138 62.1168 188.681C63.0433 188.225 64.0189 187.654 65.044 186.968C66.0681 186.282 67.0482 185.558 67.9832 184.796C68.9211 183.958 69.5809 183.233 69.9636 182.623C70.346 182.013 70.8362 180.829 71.4329 179.074C72.0324 177.242 72.639 175.142 73.2539 172.776C73.87 170.333 74.4891 167.775 75.112 165.103C75.737 162.354 76.2664 159.758 76.6998 157.315C77.2269 154.795 77.6081 152.58 77.8442 150.671C78.1735 148.686 78.3497 147.273 78.3728 146.433C78.3263 144.829 77.5946 143.186 76.1791 141.502C74.7631 139.82 73.1137 138.327 71.2302 137.025C69.4383 135.723 67.6374 134.728 65.8285 134.037C64.1109 133.346 62.9726 133.191 62.4137 133.572ZM238.247 166.199C236.578 167.036 234.911 167.834 233.244 168.596C231.856 169.204 230.376 169.851 228.803 170.535C227.321 171.22 226.073 171.752 225.057 172.133C224.653 180.075 224.255 186.185 223.861 190.462C223.56 194.739 223.336 197.87 223.189 199.856C222.94 202.223 222.721 203.56 222.53 203.865C222.347 203.864 221.807 203.558 220.909 202.945C220.014 202.256 219.031 201.452 217.96 200.534C216.98 199.615 216.046 198.697 215.157 197.779C214.36 196.861 213.876 196.173 213.706 195.714C213.643 194.721 213.493 191.856 213.26 187.12C213.134 185.058 213.022 182.499 212.924 179.443C212.827 176.388 212.701 172.683 212.548 168.329C212.394 163.975 212.217 158.857 212.014 152.975C211.904 147.094 211.772 140.334 211.618 132.696C209.975 132.616 208.605 132.575 207.508 132.573C206.502 132.572 205.724 132.608 205.173 132.684C204.626 132.683 204.214 132.682 203.94 132.681C203.668 132.605 203.444 132.413 203.27 132.107C202.921 131.496 202.676 130.464 202.534 129.012C202.393 127.484 202.342 126.033 202.38 124.659C202.423 123.131 202.694 121.604 203.193 120.077C203.784 118.551 204.45 117.597 205.192 117.216C205.47 117.064 206.157 117.027 207.252 117.106C208.438 117.184 209.805 117.339 211.352 117.571C212.9 117.803 214.583 118.073 216.403 118.382C218.223 118.691 219.951 119 221.588 119.308C223.224 119.617 224.632 119.925 225.813 120.232C227.086 120.464 227.996 120.618 228.542 120.695C229.452 120.85 231.13 121.311 233.577 122.08C236.026 122.771 238.606 123.654 241.319 124.729C244.125 125.727 246.744 126.839 249.179 128.066C251.706 129.216 253.548 130.365 254.704 131.513C255.149 131.971 255.524 133.271 255.83 135.41C256.228 137.55 256.483 139.879 256.596 142.401C256.802 144.845 256.828 147.213 256.673 149.504C256.611 151.719 256.342 153.169 255.866 153.856C255.488 154.314 254.782 155.038 253.749 156.029C252.716 157.021 251.406 158.126 249.818 159.345C248.324 160.488 246.6 161.669 244.646 162.887C242.693 164.106 240.56 165.21 238.247 166.199ZM225.7 163.77C226.533 163.39 227.559 162.666 228.777 161.599C230.088 160.455 231.449 159.198 232.858 157.825C234.269 156.377 235.682 154.889 237.095 153.364C238.511 151.763 239.786 150.276 240.921 148.903C242.148 147.53 243.094 146.348 243.762 145.356C244.523 144.288 244.908 143.601 244.916 143.296C244.929 142.838 244.533 142.264 243.73 141.575C242.928 140.81 241.761 140.044 240.229 139.277C238.788 138.511 236.98 137.782 234.805 137.091C232.724 136.323 230.411 135.67 227.867 135.131L225.7 163.77ZM293.364 166.298C291.695 167.135 290.027 167.934 288.361 168.695C286.973 169.303 285.493 169.95 283.92 170.635C282.438 171.32 281.189 171.852 280.173 172.232C279.77 180.175 279.372 186.284 278.979 190.561C278.677 194.838 278.453 197.969 278.306 199.955C278.058 202.322 277.838 203.659 277.646 203.964C277.464 203.963 276.924 203.657 276.027 203.045C275.132 202.355 274.148 201.551 273.077 200.633C272.097 199.714 271.163 198.796 270.274 197.878C269.477 196.96 268.994 196.272 268.823 195.813C268.76 194.82 268.611 191.956 268.376 187.22C268.251 185.157 268.139 182.598 268.041 179.543C267.944 176.487 267.818 172.782 267.665 168.428C267.511 164.074 267.334 158.956 267.131 153.074C267.021 147.193 266.888 140.433 266.735 132.795C265.092 132.715 263.722 132.675 262.625 132.673C261.619 132.671 260.841 132.707 260.291 132.783C259.743 132.782 259.331 132.781 259.057 132.781C258.784 132.704 258.561 132.512 258.387 132.206C258.039 131.595 257.793 130.563 257.651 129.112C257.51 127.584 257.459 126.133 257.497 124.758C257.539 123.23 257.81 121.703 258.31 120.176C258.901 118.65 259.568 117.696 260.309 117.316C260.588 117.163 261.274 117.126 262.369 117.205C263.555 117.283 264.922 117.439 266.47 117.67C268.017 117.902 269.701 118.173 271.52 118.481C273.339 118.79 275.068 119.099 276.705 119.407C278.342 119.716 279.75 120.024 280.929 120.332C282.203 120.563 283.113 120.718 283.659 120.795C284.569 120.949 286.247 121.41 288.694 122.179C291.142 122.871 293.723 123.753 296.436 124.828C299.241 125.826 301.862 126.938 304.296 128.165C306.823 129.315 308.665 130.464 309.821 131.612C310.266 132.071 310.641 133.37 310.947 135.509C311.345 137.649 311.6 139.979 311.713 142.5C311.919 144.944 311.945 147.312 311.79 149.603C311.728 151.818 311.46 153.269 310.983 153.955C310.605 154.413 309.899 155.138 308.866 156.128C307.833 157.12 306.522 158.225 304.935 159.444C303.441 160.587 301.717 161.768 299.763 162.986C297.81 164.205 295.677 165.309 293.364 166.298ZM280.817 163.869C281.65 163.489 282.676 162.765 283.894 161.698C285.206 160.554 286.566 159.297 287.975 157.924C289.386 156.476 290.799 154.989 292.212 153.463C293.628 151.862 294.903 150.375 296.038 149.002C297.265 147.629 298.212 146.447 298.879 145.455C299.64 144.388 300.025 143.7 300.033 143.395C300.046 142.937 299.651 142.363 298.847 141.675C298.046 140.909 296.879 140.143 295.346 139.377C293.905 138.61 292.097 137.881 289.922 137.19C287.841 136.422 285.528 135.769 282.983 135.23L280.817 163.869ZM351.317 133.405C349.761 133.479 348.206 133.514 346.652 133.511C345.192 133.432 343.822 133.392 342.542 133.389C341.08 133.387 339.71 133.346 338.432 133.267C338.503 137.316 338.417 142.051 338.175 147.474C338.026 152.82 337.782 158.319 337.442 163.971C337.194 169.623 336.857 175.16 336.432 180.582C336.101 185.928 335.741 190.663 335.352 194.787C338.827 194.717 341.889 194.723 344.538 194.804C347.187 194.885 348.6 195.003 348.779 195.155C348.956 195.385 348.934 196.148 348.715 197.447C348.498 198.668 348.186 200.043 347.778 201.57C347.372 203.02 346.969 204.356 346.57 205.577C346.168 206.875 345.872 207.677 345.681 207.982C343.119 208.054 340.742 208.049 338.551 207.969C336.449 207.965 334.623 207.885 333.073 207.73C331.247 207.65 329.605 207.533 328.147 207.377C326.69 207.145 325.144 206.876 323.507 206.567C322.144 206.259 320.555 205.875 318.74 205.413C317.016 204.951 315.25 204.376 313.441 203.685C313.08 203.531 312.634 203.111 312.105 202.422C311.667 201.734 311.184 201.007 310.657 200.243C310.223 199.401 309.88 198.599 309.627 197.834C309.282 197.07 309.115 196.535 309.124 196.23C309.125 196.153 309.539 196.077 310.364 196.003C311.19 195.851 312.336 195.739 313.801 195.665C315.267 195.515 316.916 195.403 318.746 195.33C320.578 195.181 322.547 195.07 324.652 194.997C324.53 192.782 324.336 189.879 324.07 186.288C323.898 182.622 323.688 178.688 323.439 174.487C323.283 170.209 323.084 165.855 322.841 161.424C322.693 156.917 322.58 152.754 322.503 148.935C322.428 145.039 322.432 141.641 322.512 138.738C322.593 135.836 322.786 133.812 323.092 132.667C323.188 132.514 323.237 132.4 323.239 132.323C323.243 132.171 323.293 132.018 323.389 131.865L319.572 131.057C318.481 130.825 317.301 130.556 316.029 130.248C314.758 129.94 313.488 129.594 312.219 129.21C311.858 129.057 311.412 128.636 310.883 127.947C310.262 127.259 309.689 126.494 309.164 125.653C308.548 124.811 308.066 124.047 307.719 123.359C307.284 122.594 307.07 122.059 307.079 121.754C307.083 121.601 308.276 121.45 310.656 121.302C312.948 121.077 315.832 120.891 319.31 120.744C322.787 120.598 326.538 120.49 330.562 120.421C334.678 120.352 338.472 120.321 341.945 120.327C345.51 120.333 348.48 120.377 350.854 120.457C353.322 120.462 354.645 120.541 354.824 120.694C355.092 120.924 355.07 121.687 354.76 122.985C354.543 124.207 354.185 125.581 353.686 127.108C353.28 128.558 352.83 129.932 352.337 131.23C351.938 132.451 351.597 133.176 351.317 133.405Z" fill="black"/>
</svg>
